<svg xmlns="http://www.w3.org/2000/svg" width="25.588" height="14.216" viewBox="0 0 25.588 14.216">
  <path id="Path_19189" data-name="Path 19189" d="M2.941,1.454c.231.306.921,1.219,1.332,1.745C5.1,4.253,6.219,5.654,7.432,7.051a41.962,41.962,0,0,0,3.637,3.776,10.781,10.781,0,0,0,1.485,1.136,2.279,2.279,0,0,0,.619.283,2.309,2.309,0,0,0,.612-.283,10.778,10.778,0,0,0,1.485-1.136,41.959,41.959,0,0,0,3.637-3.776c1.213-1.4,2.337-2.8,3.16-3.852.411-.526,1.1-1.438,1.331-1.744a1.422,1.422,0,1,1,2.29,1.685l0,0c-.242.321-.957,1.267-1.376,1.8-.841,1.078-2,2.52-3.254,3.967a44.685,44.685,0,0,1-3.9,4.043,13.528,13.528,0,0,1-1.9,1.44,4.172,4.172,0,0,1-2.083.693,4.172,4.172,0,0,1-2.083-.693,13.524,13.524,0,0,1-1.9-1.44,44.684,44.684,0,0,1-3.9-4.043C4.029,7.468,2.872,6.026,2.031,4.948,1.612,4.411.9,3.465.655,3.145l0,0A1.422,1.422,0,1,1,2.941,1.454Z" transform="translate(-0.375 -0.875)" fill="#620f10"/>
</svg>
